<?xml version="1.0" encoding="UTF-8"?>
<svg version="1.1" xmlns="http://www.w3.org/2000/svg" width="1280" height="1280">
<path d="M0 0 C1.42486807 -0.00269614 2.8497347 -0.00626554 4.27459866 -0.01062447 C8.18896621 -0.02006268 12.10324046 -0.01708824 16.01761253 -0.01206893 C20.27669746 -0.00879864 24.53576259 -0.01708788 28.79484117 -0.02388728 C36.25927901 -0.03419143 43.7236909 -0.03703035 51.18813515 -0.03497505 C62.28828513 -0.03192615 73.38840638 -0.04024662 84.48855078 -0.0507243 C105.46716771 -0.07007306 126.44577488 -0.07569286 147.42439969 -0.07683842 C163.62495613 -0.07775729 179.82550873 -0.08187284 196.02606392 -0.08823967 C200.68836828 -0.09003474 205.35067264 -0.09181437 210.012977 -0.09358943 C211.17202252 -0.09403152 212.33106803 -0.09447362 213.52523613 -0.09492911 C246.13042541 -0.10723879 278.73561335 -0.11513011 311.34080505 -0.11424255 C313.18500603 -0.11419582 313.18500603 -0.11419582 315.06646359 -0.11414814 C321.29799571 -0.11398192 327.52952783 -0.11378384 333.76105995 -0.11357872 C334.99867674 -0.11353883 336.23629352 -0.11349894 337.51141384 -0.11345784 C340.01417729 -0.11337697 342.51694074 -0.11329337 345.01970419 -0.11320706 C383.95810434 -0.11198157 422.89646966 -0.12699391 461.83485985 -0.15435219 C505.57661163 -0.18507262 549.31834052 -0.2022847 593.06010377 -0.20042574 C597.72429427 -0.20027648 602.38848475 -0.20017907 607.05267525 -0.20011711 C608.77535227 -0.20008215 608.77535227 -0.20008215 610.53283086 -0.20004648 C629.01539937 -0.19998493 647.49793765 -0.21275737 665.98049717 -0.22998164 C684.55607214 -0.24693455 703.13160287 -0.24891463 721.70718129 -0.235763 C732.74195059 -0.22837154 743.7765855 -0.23203773 754.81134057 -0.25164768 C762.18563536 -0.26364505 769.55983279 -0.26105926 776.93412312 -0.24670668 C781.13359616 -0.23894168 785.3328091 -0.23739759 789.53226383 -0.25362138 C793.36031039 -0.26828043 797.18788257 -0.26418915 801.01590873 -0.24577365 C803.02537548 -0.24076148 805.03486288 -0.25517547 807.04427654 -0.27061921 C818.89944548 -0.17859082 830.4806613 2.30327437 841.06581688 7.81976891 C841.72194969 8.15637535 842.3780825 8.4929818 843.05409813 8.83978844 C861.76232492 18.89500801 874.18458194 36.20756532 880.46816063 56.26508141 C881.78097005 61.79841038 882.08570227 67.15677083 882.07503796 72.82481098 C882.07739019 73.67818044 882.07974242 74.53154989 882.08216593 75.41077903 C882.08883666 78.27774822 882.08839828 81.14467189 882.0879879 84.01164818 C882.09128772 86.0850362 882.09501354 88.15842359 882.09912938 90.23181015 C882.10914402 95.93568901 882.11286531 101.63955735 882.11551869 107.34344375 C882.11942332 113.49297144 882.12900155 119.6424908 882.13773155 125.79201317 C882.15655741 139.94411633 882.16675137 154.09621755 882.17519223 168.2483297 C882.17940112 175.24476131 882.1846228 182.24119206 882.18987676 189.23762295 C882.20776628 213.19614481 882.22276116 237.15466692 882.23019695 261.11319447 C882.23067171 262.61692367 882.2311476 264.12065288 882.23162461 265.62438208 C882.23197918 266.74293233 882.23197918 266.74293233 882.23234091 267.88407955 C882.23354208 271.66204046 882.23475754 275.44000136 882.23598289 279.21796227 C882.23622304 279.96770428 882.23646319 280.71744629 882.23671062 281.48990776 C882.24460084 305.78989812 882.26802728 330.08983962 882.30053884 354.38980865 C882.33486399 380.09232556 882.3545506 405.79481389 882.35784119 431.49735409 C882.35825872 434.32090605 882.35873828 437.144458 882.35926437 439.96800995 C882.35938757 440.66322744 882.35951076 441.35844494 882.35963768 442.07472963 C882.36196641 453.24619775 882.37760808 464.41760898 882.39810622 475.58905685 C882.41839774 486.82652058 882.42349332 498.06391731 882.41433559 509.3014022 C882.40979288 515.38524749 882.4116758 521.46890865 882.43109703 527.55272865 C882.448743 533.12870335 882.44771902 538.70435979 882.43219974 544.28033794 C882.42982588 546.2911832 882.43413556 548.30205059 882.44602839 550.31286209 C882.52729261 564.96752707 881.2246533 578.29182181 874.25331688 591.50726891 C873.91010399 592.17000816 873.5668911 592.83274742 873.21327782 593.51556969 C865.90336064 607.14159868 854.81403196 617.57789726 841.12831688 624.63226891 C840.53784569 624.9418856 839.9473745 625.2515023 839.33901024 625.57050133 C827.76090487 631.17290868 815.86026499 632.85287078 803.14334679 632.76063347 C801.71148164 632.76481813 800.27962076 632.77075205 798.84776914 632.77825093 C794.94185175 632.79370576 791.03633433 632.7845724 787.13042407 632.77113912 C782.87017059 632.76093613 778.60997555 632.77405409 774.34973049 632.78411245 C766.89253869 632.79852378 759.43546283 632.79814284 751.97826576 632.78792381 C740.88901055 632.772769 729.7998528 632.78054173 718.7105982 632.79275704 C698.90310931 632.81380423 679.09567208 632.81200073 659.28817829 632.80044139 C641.95421546 632.79037535 624.62027154 632.78775414 607.28630638 632.79253197 C605.56095755 632.79299028 605.56095755 632.79299028 603.80075318 632.79345785 C599.13147134 632.79470322 594.46218951 632.79597682 589.79290769 632.7972969 C546.00007122 632.80953026 502.20726763 632.79844324 458.41443624 632.77690931 C419.51533457 632.75792719 380.61628528 632.75962571 341.71718407 632.77875328 C298.00395053 632.80017627 254.29074603 632.80866264 210.57750797 632.79630423 C205.91678111 632.79502137 201.25605425 632.79377001 196.59532738 632.79253197 C194.87396885 632.7920575 194.87396885 632.7920575 193.11783541 632.79157345 C175.79564784 632.78702541 158.47348128 632.79234123 141.15129662 632.80245018 C121.4532998 632.81388836 101.75536267 632.81102542 82.05737329 632.7893272 C71.03590929 632.77758674 60.01457458 632.77680856 48.99311395 632.7919119 C41.62789158 632.80089099 34.2627727 632.79528196 26.89756564 632.77789283 C22.70338792 632.76839295 18.50946675 632.76509209 14.31529725 632.77951676 C10.49211845 632.79253107 6.66942142 632.78681666 2.84627707 632.76679412 C0.83944448 632.7609291 -1.16741705 632.77445577 -3.17420542 632.78901124 C-15.11003143 632.69123679 -26.68117727 630.17339075 -37.30918312 624.56976891 C-37.97047218 624.22873131 -38.63176125 623.88769371 -39.31308937 623.53632164 C-57.00221657 614.07564402 -70.1831125 597.42722206 -76.05918312 578.25726891 C-77.66523184 572.20333549 -78.34931756 566.55986001 -78.31645203 560.30775928 C-78.3199581 559.44953952 -78.32346418 558.59131975 -78.32707649 557.70709333 C-78.33635376 554.84162712 -78.33147667 551.9763658 -78.32660866 549.11089134 C-78.33034678 547.03150107 -78.33494894 544.9521122 -78.3403393 542.87272555 C-78.35256491 537.1661386 -78.35230934 531.4596103 -78.34995055 525.75301325 C-78.34954227 519.59533449 -78.36058269 513.43767451 -78.37006569 507.2800045 C-78.38667477 495.21806077 -78.39220115 483.15614192 -78.39329045 471.09418976 C-78.39421026 461.28761592 -78.39833076 451.4810484 -78.4046917 441.67447662 C-78.40648685 438.84950291 -78.40826648 436.02452918 -78.41004145 433.19955546 C-78.4107046 432.14603774 -78.4107046 432.14603774 -78.41138114 431.07123684 C-78.423687 411.3193618 -78.43158254 391.56748897 -78.43069458 371.81560993 C-78.43066342 371.07116314 -78.43063227 370.32671635 -78.43060016 369.55971056 C-78.43043395 365.78673801 -78.43023587 362.01376547 -78.43003075 358.24079292 C-78.42999086 357.49149861 -78.42995097 356.74220429 -78.42990987 355.97020409 C-78.42982899 354.45494784 -78.4297454 352.93969159 -78.42965909 351.42443534 C-78.42843409 327.85932978 -78.4434384 304.29428182 -78.47080421 280.72919273 C-78.50155454 254.23888692 -78.51873489 227.74861895 -78.51687777 201.25829417 C-78.51672852 198.43111996 -78.5166311 195.60394576 -78.51656914 192.77677155 C-78.51654583 192.08067782 -78.51652252 191.3845841 -78.51649851 190.66739663 C-78.51643707 179.48606675 -78.52918574 168.30478703 -78.54643367 157.12347204 C-78.56342379 145.87627056 -78.56499582 134.62914124 -78.55221502 123.3819276 C-78.54569223 117.29389073 -78.54554353 111.20603486 -78.56292152 105.11801529 C-78.57868753 99.53716787 -78.57575233 93.95664442 -78.55835326 88.37580473 C-78.55529114 86.36436082 -78.55888578 84.35289252 -78.57007341 82.34147739 C-78.69762583 57.76767971 -72.57787013 38.25690696 -55.16855812 20.30805016 C-39.68511668 5.8329841 -20.72983424 -0.06520303 0 0 Z M-25.05918312 36.25726891 C-23.92980067 39.64541627 -23.36943048 40.00521787 -20.50840187 41.90180016 C-19.75760353 42.40638756 -19.00680519 42.91097496 -18.23325539 43.43085289 C-17.00240211 44.24211632 -17.00240211 44.24211632 -15.74668312 45.06976891 C-13.99856901 46.24317871 -12.25119616 47.41769343 -10.50449562 48.59320641 C-9.60118507 49.19874352 -8.69787453 49.80428062 -7.76719093 50.42816734 C-3.51620448 53.29946111 0.68182578 56.24463691 4.87831688 59.19476891 C5.70565331 59.77524986 6.53298973 60.35573082 7.38539696 60.95380211 C9.0654149 62.13256506 10.7451839 63.31168288 12.4247036 64.49115562 C16.59373549 67.41748754 20.76750208 70.3370499 24.94081688 73.25726891 C26.60750649 74.4239028 28.27417315 75.59056947 29.94081688 76.75726891 C30.76581688 77.33476891 31.59081688 77.91226891 32.44081688 78.50726891 C114.94081688 136.25726891 197.44081688 194.00726891 362.44423485 309.50971031 C364.09944703 310.66832647 365.75471979 311.82685609 367.41005516 312.98529625 C371.75249369 316.02440379 376.09365556 319.06531355 380.43300438 322.10883141 C381.33405907 322.74047203 382.23511375 323.37211266 383.16347313 324.02289391 C384.88261441 325.22806511 386.60138761 326.43376162 388.31972313 327.64008141 C389.846264 328.70992162 391.37569616 329.77565345 392.90859032 330.83637047 C394.18644862 331.72982738 395.4523079 332.64095817 396.69960594 333.57660484 C399.51198018 335.75936659 399.51198018 335.75936659 402.9090786 335.97919273 C406.27761207 334.78227451 409.04577417 332.62096028 411.94081688 330.56976891 C412.63723289 330.08355064 413.33364891 329.59733238 414.05116844 329.09638023 C415.56116563 328.04101122 417.06923209 326.9828756 418.5755825 325.92230797 C420.95903745 324.24444228 423.34761492 322.5741231 425.73769188 320.90570641 C429.94986841 317.96383562 434.15709041 315.01496219 438.36318016 312.06439781 C440.92813401 310.26616061 443.49471054 308.47026635 446.06191063 306.67523766 C453.80446288 301.26118299 461.54088519 295.83916069 469.25331688 290.38226891 C476.87655766 284.99026483 484.54022743 279.65724885 492.20815086 274.32904625 C504.58845453 265.72548891 516.94537504 257.08906887 529.25331688 248.38226891 C536.87876489 242.98881431 544.54442479 237.65403663 552.21474266 232.32465172 C560.98732878 226.2286691 569.74079344 220.10571627 578.48915672 213.97504234 C582.63868116 211.067648 586.78983994 208.16258889 590.94081688 205.25726891 C592.60749119 204.09061316 594.27415786 202.9239465 595.94081688 201.75726891 C705.94081687 124.75726891 705.94081687 124.75726891 708.4415493 123.00678062 C710.10580516 121.84178527 711.77003049 120.67674631 713.43422508 119.51166344 C717.63752611 116.56906479 721.84137869 113.62725987 726.04628563 110.68695641 C733.79367206 105.26846598 741.53557546 99.84291757 749.25331688 94.38226891 C756.87871229 88.98874083 764.5444256 83.65403607 772.21474266 78.32465172 C780.15536742 72.80679076 788.08120591 67.26817913 795.99941063 61.71820641 C799.44671961 59.30212008 802.89771889 56.89141234 806.35097313 54.48383141 C807.24469627 53.86008629 808.13841942 53.23634117 809.05922508 52.59369469 C810.75361235 51.41128621 812.44870688 50.22989027 814.1446743 49.04974937 C819.15438494 45.55125185 824.07780547 41.95702399 828.94081688 38.25726891 C828.27898764 35.12444974 828.27898764 35.12444974 825.81581688 34.12445641 C807.953238 27.95992511 787.59584078 30.11006789 768.92166517 30.12259999 C764.81326018 30.12424725 760.70486013 30.12008058 756.59645677 30.11669081 C749.40903637 30.11155828 742.22162271 30.11011587 735.03420067 30.11114693 C724.34620731 30.11267639 713.65822136 30.10850019 702.97022944 30.1032723 C682.77074458 30.0936175 662.57126226 30.0907888 642.37177536 30.09021524 C626.77589482 30.08975529 611.18001527 30.08769485 595.58413506 30.08451462 C591.09128897 30.08361706 586.59844287 30.08272724 582.10559678 30.08183974 C580.98861737 30.08161869 579.87163795 30.08139764 578.72081068 30.0811699 C547.31877259 30.07501894 515.91673484 30.07106903 484.51469612 30.07151318 C482.74004039 30.07153654 482.74004039 30.07153654 480.92953304 30.07156038 C474.93332808 30.07164349 468.93712313 30.07174253 462.94091818 30.07184509 C461.15466977 30.07187501 461.15466977 30.07187501 459.33233554 30.07190553 C456.92418824 30.07194597 454.51604094 30.07198777 452.10789363 30.07203092 C414.61827824 30.07264405 377.12867188 30.06512893 339.63905907 30.05145836 C297.50503894 30.03610048 255.37102476 30.02749188 213.23700166 30.02842158 C208.74541299 30.02849621 204.25382431 30.02854492 199.76223564 30.0285759 C198.65631596 30.02858755 197.55039628 30.02859921 196.41096388 30.02861121 C178.61280692 30.02864199 160.81465781 30.02225598 143.01650319 30.01364363 C125.13647789 30.00517044 107.25646407 30.00417467 89.37643787 30.01075295 C78.75449574 30.01445017 68.13258851 30.01261101 57.51065008 30.00281061 C50.41437129 29.99681617 43.31811781 29.99810011 36.2218402 30.00528111 C32.17971221 30.00916698 28.13765182 30.00992565 24.09552857 30.00182376 C20.41275361 29.99450684 16.73010209 29.99652587 13.04733248 30.00574763 C11.11063615 30.00825988 9.17393449 30.00103662 7.23725188 29.99332485 C-4.13351273 30.03932078 -14.88684851 30.84253782 -25.05918312 36.25726891 Z M-46.05918312 61.25726891 C-48.11624492 72.60713736 -48.34241834 83.61196466 -48.31315041 95.10724449 C-48.31545841 97.0933797 -48.31863721 99.07951406 -48.32260489 101.06564665 C-48.33091479 106.49116765 -48.32684498 111.91661783 -48.32063246 117.34213901 C-48.31609334 123.20588762 -48.32309896 129.06962436 -48.3285923 134.93337059 C-48.33747238 146.40774792 -48.33557046 157.88209904 -48.32976702 169.35647738 C-48.32524509 178.68430546 -48.3245872 188.01212696 -48.32681465 197.33995628 C-48.32696742 198.00379498 -48.32712019 198.66763368 -48.32727759 199.35158871 C-48.32790031 202.04663459 -48.32853712 204.74168048 -48.32919712 207.43672635 C-48.33530886 232.69483881 -48.32977813 257.952937 -48.31900332 283.21104725 C-48.30951281 305.62896862 -48.3103621 328.04686727 -48.31992531 350.46478844 C-48.33064514 375.67805025 -48.33487534 400.89129946 -48.32870078 426.10456324 C-48.32805939 428.79456933 -48.32743371 431.48457543 -48.32681465 434.17458153 C-48.3266565 434.83688198 -48.32649834 435.49918244 -48.32633539 436.1815526 C-48.32406481 446.1629474 -48.32672543 456.14432981 -48.33177376 466.12572289 C-48.33739047 477.48019351 -48.3358495 488.83463649 -48.32521227 500.18910396 C-48.31996623 505.97916299 -48.31788063 511.76917596 -48.32451057 517.55923462 C-48.33049421 522.86522005 -48.32715519 528.171117 -48.31655547 533.47709447 C-48.31433166 535.39077426 -48.31543467 537.30446161 -48.32030705 539.21813649 C-48.36247327 557.16375689 -48.31842853 574.81053851 -35.24668312 588.75726891 C-24.00248391 598.89441375 -12.87293212 601.71430829 1.94870377 601.63758564 C3.36796241 601.64102235 4.78721837 601.64577129 6.20646876 601.65170661 C10.10527226 601.66420576 14.0038567 601.65807103 17.90266115 601.64887293 C22.14477495 601.64216224 26.38685112 601.6528297 30.62895691 601.66126877 C38.06347887 601.67364525 45.49793772 601.67484387 52.93246651 601.66871834 C63.98790943 601.65963373 75.04329391 601.66765412 86.09873235 601.67900958 C105.84346196 601.69868907 125.58816533 601.70102144 145.3329024 601.69581438 C162.6129685 601.69125947 179.89302421 601.69185355 197.17308998 601.69765472 C199.48986144 601.69841159 201.8066329 601.69916757 204.12340436 601.69992267 C207.61445243 601.70106785 211.1055005 601.70221772 214.59654857 601.70338191 C247.05884919 601.71408904 279.52114634 601.71880997 311.98344803 601.71091175 C313.20748478 601.71061458 314.43152153 601.7103174 315.6926503 601.71001123 C325.6330709 601.70756222 335.57349147 601.70495067 345.51391203 601.70232709 C384.29115848 601.69222403 423.06836163 601.70058034 461.84560204 601.72382164 C505.40127054 601.7498846 548.95691298 601.76274476 592.51258957 601.75563389 C597.15536379 601.75491781 601.79813802 601.75424343 606.44091225 601.75359344 C607.58410069 601.75342364 608.72728913 601.75325383 609.90511965 601.75307887 C627.17363946 601.75077439 644.4421351 601.75875999 661.71064949 601.77188492 C681.34595486 601.78678201 700.9812035 601.7876583 720.61650763 601.76981401 C731.60767978 601.76023698 742.59871969 601.76171448 753.58988306 601.7790487 C760.93001642 601.78951784 768.27004879 601.78546648 775.61017217 601.76956866 C779.79341096 601.76091561 783.97639016 601.75856396 788.15961586 601.77383798 C791.96825599 601.78761314 795.77641418 601.78285066 799.58502623 601.76355279 C801.59380311 601.75807846 803.60260458 601.77213708 805.61133331 601.78708413 C817.40195884 601.69194422 826.64482931 598.52086376 835.94081688 591.25726891 C836.55698875 590.77902672 837.17316063 590.30078453 837.80800438 589.80805016 C847.38668936 581.3575214 850.67543703 569.49480982 851.94081688 557.25726891 C852.29161159 550.65789855 852.21149292 544.04446598 852.19478416 537.43816185 C852.19709164 535.44321471 852.20027008 533.44826843 852.20423865 531.4533239 C852.21255579 525.99887933 852.20847542 520.54450512 852.20226622 515.09006035 C852.19773013 509.19702063 852.2047312 503.30399277 852.21022606 497.41095543 C852.21910918 485.87762198 852.2172029 474.34431459 852.21140078 462.81098013 C852.20680904 453.43639062 852.20622031 444.06180802 852.20844841 434.68721771 C852.20860118 434.02024733 852.20875395 433.35327695 852.20891135 432.66609534 C852.20953406 429.95840177 852.21017087 427.2507082 852.21083088 424.54301463 C852.21694349 399.16329269 852.21141038 373.78358493 852.20063708 348.40386518 C852.19114538 325.87200062 852.19199667 303.34015866 852.20155907 280.8082943 C852.21227564 255.47237062 852.21651101 230.13645946 852.21033454 204.80053383 C852.20969314 202.09819067 852.20906746 199.3958475 852.20844841 196.69350433 C852.20829026 196.02815623 852.2081321 195.36280813 852.20796915 194.67729797 C852.20569734 184.64429906 852.20836144 174.61130961 852.21340752 164.57831192 C852.21902057 153.1673993 852.21749088 141.75651419 852.20684603 130.34560471 C852.20159524 124.52542151 852.19952255 118.70528416 852.20614433 112.88510132 C852.21211801 107.55389163 852.20880522 102.22277015 852.19818923 96.89156843 C852.19596124 94.9664543 852.19707794 93.04133267 852.2019408 91.11622339 C852.22482327 81.30218334 852.07814783 71.895841 849.94081688 62.25726891 C846.69853335 62.99405327 844.59748483 63.98465389 841.87831688 65.92523766 C841.09198875 66.48146812 840.30566063 67.03769859 839.49550438 67.61078453 C838.23093407 68.5186068 838.23093407 68.5186068 836.94081688 69.44476891 C835.12842972 70.73008429 833.31592653 72.01523606 831.50331688 73.30023766 C830.57777 73.95943199 829.65222313 74.61862633 828.69862938 75.29779625 C824.46238114 78.30772263 820.20128499 81.28177756 815.94081688 84.25726891 C814.27401236 85.42373862 812.60734612 86.59040595 810.94081688 87.75726891 C807.60748355 90.09060224 804.27415021 92.42393557 800.94081688 94.75726891 C800.11605858 95.33460777 799.29130028 95.91194664 798.4415493 96.50678062 C796.7724718 97.67511858 795.10336366 98.84341275 793.43422508 100.01166344 C789.3041935 102.90240379 785.17467242 105.79386744 781.04628563 108.68695641 C772.18874044 114.89287978 763.321198 121.08405896 754.44081688 127.25726891 C740.38194638 137.031117 726.3486043 146.84039574 712.36635399 156.7235775 C704.4255782 162.33351566 696.45692301 167.90353955 688.48915672 173.47504234 C684.30538628 176.40103624 680.12317164 179.32925201 675.94081688 182.25726891 C674.27415786 183.4239465 672.60749119 184.59061316 670.94081688 185.75726891 C670.11581688 186.33476891 669.29081688 186.91226891 668.44081688 187.50726891 C645.94081688 203.25726891 623.44081688 219.00726891 600.94081688 234.75726891 C600.11605858 235.33460777 599.29130028 235.91194664 598.4415493 236.50678062 C596.7724718 237.67511858 595.10336366 238.84341275 593.43422508 240.01166344 C589.3041935 242.90240379 585.17467242 245.79386744 581.04628563 248.68695641 C572.12716986 254.93592798 563.19683177 261.16825873 554.25331688 267.38226891 C546.88681571 272.50138361 539.53763725 277.64337492 532.21474266 282.82465172 C524.32256171 288.40733922 516.39839425 293.94418427 508.47597313 299.48383141 C505.99465768 301.21960523 503.51441114 302.95689405 501.03456688 304.69476891 C492.11959186 310.94147324 483.19297802 317.17093633 474.25331688 323.38226891 C466.88981862 328.49929683 459.54407224 333.63979449 452.22353172 338.81805992 C444.28963223 344.42912476 436.33240784 350.00643812 428.36122704 355.56439781 C426.01106614 357.20813552 423.66874889 358.86254019 421.32753563 360.51898766 C419.90715924 361.51536162 418.48659663 362.51147019 417.06581688 363.50726891 C416.4302285 363.96109947 415.79464012 364.41493004 415.13979149 364.88251305 C410.30644166 368.25006946 406.49663079 370.33347437 400.53456688 370.15570641 C396.21335799 369.07540418 393.12948799 367.31382473 389.44081688 364.88226891 C388.39389671 364.20961998 388.39389671 364.20961998 387.32582664 363.52338219 C382.1024824 360.12528921 377.0596799 356.50852778 372.06850243 352.78046227 C366.38391353 348.54129343 360.58153175 344.48361112 354.75331688 340.44476891 C353.27629295 339.42093102 353.27629295 339.42093102 351.76943016 338.37640953 C349.78505489 337.00133777 347.80051801 335.6264992 345.81581688 334.25189781 C341.4526748 331.22481979 337.10219028 328.17979609 332.75331688 325.13226891 C331.94032127 324.56274498 331.12732567 323.99322105 330.28969383 323.40643883 C328.65721451 322.26274522 327.02480857 321.11894687 325.39247704 319.97504234 C321.2429526 317.067648 317.09179382 314.16258889 312.94081688 311.25726891 C311.27414257 310.09061316 309.6074759 308.9239465 307.94081688 307.75726891 C307.11581688 307.17976891 306.29081688 306.60226891 305.44081688 306.00726891 C257.94081688 272.75726891 257.94081688 272.75726891 255.4415493 271.00775719 C253.7724718 269.83941923 252.10336366 268.67112506 250.43422508 267.50287437 C246.3041935 264.61213402 242.17467242 261.72067037 238.04628563 258.82758141 C229.12717003 252.57860995 220.19686085 246.34623707 211.25331688 240.13226891 C203.95807544 235.06313343 196.68201482 229.96885505 189.43227196 224.83490562 C183.45784747 220.60956083 177.4510478 216.43147628 171.44081688 212.25726891 C164.08293395 207.14709434 156.74378578 202.01267879 149.43300438 196.83539391 C143.45829962 192.60993731 137.45128897 188.43164378 131.44081688 184.25726891 C124.08293395 179.14709434 116.74378578 174.01267879 109.43300438 168.83539391 C103.45829936 164.60993712 97.45126994 160.43167155 91.44081688 156.25726891 C84.01166221 151.09713809 76.59942487 145.91495895 69.21547508 140.69037437 C61.32731369 135.11064501 53.40741982 129.5763829 45.48915672 124.03949547 C41.30538628 121.11350158 37.12317164 118.1852858 32.94081688 115.25726891 C31.27415786 114.09059131 29.60749119 112.92392465 27.94081688 111.75726891 C17.94081688 104.75726891 7.94081688 97.75726891 -2.05918312 90.75726891 C-2.88523048 90.17904381 -3.71127785 89.60081871 -4.56235695 89.00507164 C-6.21847481 87.84577294 -7.87456237 86.68643094 -9.53061867 85.5270443 C-13.85842637 82.4972804 -18.18685717 79.46841208 -22.51621437 76.44086266 C-23.41275734 75.81373375 -24.30930031 75.18660484 -25.23301125 74.54047203 C-26.93854398 73.34748282 -28.64426045 72.15475623 -30.35019875 70.96234703 C-31.1268589 70.41900719 -31.90351906 69.87566734 -32.70371437 69.31586266 C-33.44057472 68.80136559 -34.17743507 68.28686852 -34.93662453 67.75678062 C-36.33879918 66.76619439 -37.73199745 65.76276396 -39.11533546 64.74603844 C-42.25591845 62.14729366 -42.25591845 62.14729366 -46.05918312 61.25726891 Z " fill="#000000" transform="translate(238.05918312072754,323.74273109436035)"/>
</svg>
